<svg width="224" height="48" viewBox="0 0 224 48" fill="none" xmlns="http://www.w3.org/2000/svg">
<rect width="224" height="48" rx="4" fill="white" fill-opacity="0.08"/>
<path d="M37 26H30V33H37V26Z" stroke="white" stroke-opacity="0.7" stroke-width="2" stroke-linecap="round" stroke-linejoin="round"/>
<path d="M26 26H19V33H26V26Z" stroke="white" stroke-opacity="0.7" stroke-width="2" stroke-linecap="round" stroke-linejoin="round"/>
<path d="M37 15H30V22H37V15Z" stroke="white" stroke-opacity="0.7" stroke-width="2" stroke-linecap="round" stroke-linejoin="round"/>
<path d="M26 15H19V22H26V15Z" stroke="white" stroke-opacity="0.7" stroke-width="2" stroke-linecap="round" stroke-linejoin="round"/>
<path d="M63.2273 24.1818C63.2273 25.4091 63.0057 26.4697 62.5625 27.3636C62.1193 28.2576 61.5114 28.947 60.7386 29.4318C59.9659 29.9167 59.0833 30.1591 58.0909 30.1591C57.0985 30.1591 56.2159 29.9167 55.4432 29.4318C54.6705 28.947 54.0625 28.2576 53.6193 27.3636C53.1761 26.4697 52.9545 25.4091 52.9545 24.1818C52.9545 22.9545 53.1761 21.8939 53.6193 21C54.0625 20.1061 54.6705 19.4167 55.4432 18.9318C56.2159 18.447 57.0985 18.2045 58.0909 18.2045C59.0833 18.2045 59.9659 18.447 60.7386 18.9318C61.5114 19.4167 62.1193 20.1061 62.5625 21C63.0057 21.8939 63.2273 22.9545 63.2273 24.1818ZM61.8636 24.1818C61.8636 23.1742 61.6951 22.3239 61.358 21.6307C61.0246 20.9375 60.572 20.4129 60 20.0568C59.4318 19.7008 58.7955 19.5227 58.0909 19.5227C57.3864 19.5227 56.7481 19.7008 56.1761 20.0568C55.608 20.4129 55.1553 20.9375 54.8182 21.6307C54.4848 22.3239 54.3182 23.1742 54.3182 24.1818C54.3182 25.1894 54.4848 26.0398 54.8182 26.733C55.1553 27.4261 55.608 27.9508 56.1761 28.3068C56.7481 28.6629 57.3864 28.8409 58.0909 28.8409C58.7955 28.8409 59.4318 28.6629 60 28.3068C60.572 27.9508 61.0246 27.4261 61.358 26.733C61.6951 26.0398 61.8636 25.1894 61.8636 24.1818ZM72.5511 21.2727L69.3239 30H67.9602L64.733 21.2727H66.1875L68.5966 28.2273H68.6875L71.0966 21.2727H72.5511ZM77.6676 30.1818C76.8267 30.1818 76.1013 29.9962 75.4915 29.625C74.8854 29.25 74.4176 28.7273 74.0881 28.0568C73.7623 27.3826 73.5994 26.5985 73.5994 25.7045C73.5994 24.8106 73.7623 24.0227 74.0881 23.3409C74.4176 22.6553 74.8759 22.1212 75.4631 21.7386C76.054 21.3523 76.7434 21.1591 77.5312 21.1591C77.9858 21.1591 78.4347 21.2348 78.8778 21.3864C79.321 21.5379 79.7244 21.7841 80.0881 22.125C80.4517 22.4621 80.7415 22.9091 80.9574 23.4659C81.1733 24.0227 81.2812 24.7083 81.2812 25.5227V26.0909H74.554V24.9318H79.9176C79.9176 24.4394 79.8191 24 79.6222 23.6136C79.429 23.2273 79.1525 22.9223 78.7926 22.6989C78.4366 22.4754 78.0161 22.3636 77.5312 22.3636C76.9972 22.3636 76.535 22.4962 76.1449 22.7614C75.7585 23.0227 75.4612 23.3636 75.2528 23.7841C75.0445 24.2045 74.9403 24.6553 74.9403 25.1364V25.9091C74.9403 26.5682 75.054 27.1269 75.2812 27.5852C75.5123 28.0398 75.8324 28.3864 76.2415 28.625C76.6506 28.8598 77.1259 28.9773 77.6676 28.9773C78.0199 28.9773 78.3381 28.928 78.6222 28.8295C78.91 28.7273 79.1581 28.5758 79.3665 28.375C79.5748 28.1705 79.7358 27.9167 79.8494 27.6136L81.1449 27.9773C81.0085 28.4167 80.7794 28.803 80.4574 29.1364C80.1354 29.4659 79.7377 29.7235 79.2642 29.9091C78.7907 30.0909 78.2585 30.1818 77.6676 30.1818ZM83.321 30V21.2727H84.6165V22.5909H84.7074C84.8665 22.1591 85.1544 21.8087 85.571 21.5398C85.9877 21.2708 86.4574 21.1364 86.9801 21.1364C87.0786 21.1364 87.2017 21.1383 87.3494 21.142C87.4972 21.1458 87.6089 21.1515 87.6847 21.1591V22.5227C87.6392 22.5114 87.535 22.4943 87.3722 22.4716C87.2131 22.4451 87.0445 22.4318 86.8665 22.4318C86.4422 22.4318 86.0634 22.5208 85.7301 22.6989C85.4006 22.8731 85.1392 23.1155 84.946 23.4261C84.7566 23.733 84.6619 24.0833 84.6619 24.4773V30H83.321ZM96.6761 21.2727L93.4489 30H92.0852L88.858 21.2727H90.3125L92.7216 28.2273H92.8125L95.2216 21.2727H96.6761ZM98.446 30V21.2727H99.7869V30H98.446ZM99.1278 19.8182C98.8665 19.8182 98.6411 19.7292 98.4517 19.5511C98.2661 19.3731 98.1733 19.1591 98.1733 18.9091C98.1733 18.6591 98.2661 18.4451 98.4517 18.267C98.6411 18.089 98.8665 18 99.1278 18C99.3892 18 99.6127 18.089 99.7983 18.267C99.9877 18.4451 100.082 18.6591 100.082 18.9091C100.082 19.1591 99.9877 19.3731 99.7983 19.5511C99.6127 19.7292 99.3892 19.8182 99.1278 19.8182ZM105.902 30.1818C105.061 30.1818 104.336 29.9962 103.726 29.625C103.12 29.25 102.652 28.7273 102.322 28.0568C101.997 27.3826 101.834 26.5985 101.834 25.7045C101.834 24.8106 101.997 24.0227 102.322 23.3409C102.652 22.6553 103.11 22.1212 103.697 21.7386C104.288 21.3523 104.978 21.1591 105.766 21.1591C106.22 21.1591 106.669 21.2348 107.112 21.3864C107.555 21.5379 107.959 21.7841 108.322 22.125C108.686 22.4621 108.976 22.9091 109.192 23.4659C109.408 24.0227 109.516 24.7083 109.516 25.5227V26.0909H102.788V24.9318H108.152C108.152 24.4394 108.054 24 107.857 23.6136C107.663 23.2273 107.387 22.9223 107.027 22.6989C106.671 22.4754 106.25 22.3636 105.766 22.3636C105.232 22.3636 104.769 22.4962 104.379 22.7614C103.993 23.0227 103.696 23.3636 103.487 23.7841C103.279 24.2045 103.175 24.6553 103.175 25.1364V25.9091C103.175 26.5682 103.288 27.1269 103.516 27.5852C103.747 28.0398 104.067 28.3864 104.476 28.625C104.885 28.8598 105.36 28.9773 105.902 28.9773C106.254 28.9773 106.572 28.928 106.857 28.8295C107.144 28.7273 107.393 28.5758 107.601 28.375C107.809 28.1705 107.97 27.9167 108.084 27.6136L109.379 27.9773C109.243 28.4167 109.014 28.803 108.692 29.1364C108.37 29.4659 107.972 29.7235 107.499 29.9091C107.025 30.0909 106.493 30.1818 105.902 30.1818ZM113.533 30L110.874 21.2727H112.283L114.169 27.9545H114.26L116.124 21.2727H117.555L119.396 27.9318H119.487L121.374 21.2727H122.783L120.124 30H118.805L116.896 23.2955H116.76L114.851 30H113.533Z" fill="white" fill-opacity="0.7"/>
</svg>
